<svg xmlns="http://www.w3.org/2000/svg" viewBox="0 0 900 640" role="img" aria-labelledby="title desc">
  <title id="title">Manual QA evidence board</title>
  <desc id="desc">A structured QA board showing test coverage, defect triage, mobile checks, API validation, and AI workflow review.</desc>
  <rect width="900" height="640" fill="#17201c"/>
  <path d="M0 0h900v640H0z" fill="#17201c"/>
  <g opacity=".14" stroke="#f8f5ef" stroke-width="1">
    <path d="M80 0v640M180 0v640M280 0v640M380 0v640M480 0v640M580 0v640M680 0v640M780 0v640"/>
    <path d="M0 80h900M0 180h900M0 280h900M0 380h900M0 480h900M0 580h900"/>
  </g>
  <rect x="58" y="58" width="784" height="524" fill="#f8f5ef" rx="18"/>
  <rect x="92" y="94" width="716" height="88" fill="#1f6f54" rx="14"/>
  <text x="126" y="132" fill="#ffffff" font-family="Trebuchet MS, Verdana, sans-serif" font-size="22" font-weight="700">QA Engineer Evidence Board</text>
  <text x="126" y="160" fill="#d6eadf" font-family="Trebuchet MS, Verdana, sans-serif" font-size="16">Resume-backed coverage across SaaS, AI, mobile, API, payments, and security testing</text>
  <g font-family="Trebuchet MS, Verdana, sans-serif">
    <rect x="92" y="222" width="214" height="128" fill="#ffffff" stroke="#d9d4c9"/>
    <text x="114" y="258" fill="#b75c35" font-size="15" font-weight="700">TEST DESIGN</text>
    <text x="114" y="290" fill="#17201c" font-size="34" font-weight="700">2000+</text>
    <text x="114" y="322" fill="#5f6863" font-size="15">manual cases across 10 products</text>
    <rect x="343" y="222" width="214" height="128" fill="#ffffff" stroke="#d9d4c9"/>
    <text x="365" y="258" fill="#b75c35" font-size="15" font-weight="700">DEFECT CONTROL</text>
    <text x="365" y="290" fill="#17201c" font-size="34" font-weight="700">25-30%</text>
    <text x="365" y="322" fill="#5f6863" font-size="15">lower defect escape rate</text>
    <rect x="594" y="222" width="214" height="128" fill="#ffffff" stroke="#d9d4c9"/>
    <text x="616" y="258" fill="#b75c35" font-size="15" font-weight="700">AI WORKFLOWS</text>
    <text x="616" y="290" fill="#17201c" font-size="34" font-weight="700">AI</text>
    <text x="616" y="322" fill="#5f6863" font-size="15">prompt, output, and workflow QA</text>
  </g>
  <g stroke="#17201c" stroke-width="2" fill="none">
    <path d="M145 430h120l32 44 70-98 48 72 58-42 74 64 92-118 110 78"/>
  </g>
  <g>
    <circle cx="145" cy="430" r="8" fill="#1f6f54"/>
    <circle cx="297" cy="474" r="8" fill="#b75c35"/>
    <circle cx="367" cy="376" r="8" fill="#244f88"/>
    <circle cx="547" cy="470" r="8" fill="#1f6f54"/>
    <circle cx="639" cy="352" r="8" fill="#b75c35"/>
    <circle cx="749" cy="430" r="8" fill="#244f88"/>
  </g>
  <g font-family="Trebuchet MS, Verdana, sans-serif" font-size="14" font-weight="700">
    <rect x="112" y="516" width="138" height="34" fill="#ece7dd" rx="17"/>
    <text x="136" y="538" fill="#17201c">DevTools</text>
    <rect x="270" y="516" width="112" height="34" fill="#ece7dd" rx="17"/>
    <text x="302" y="538" fill="#17201c">BVA</text>
    <rect x="402" y="516" width="112" height="34" fill="#ece7dd" rx="17"/>
    <text x="434" y="538" fill="#17201c">EQP</text>
    <rect x="534" y="516" width="132" height="34" fill="#ece7dd" rx="17"/>
    <text x="564" y="538" fill="#17201c">Postman</text>
    <rect x="686" y="516" width="102" height="34" fill="#ece7dd" rx="17"/>
    <text x="718" y="538" fill="#17201c">AI QA</text>
  </g>
</svg>
